<?xml version="1.0" encoding="UTF-8" standalone="no"?>
<svg
   xmlns:dc="http://purl.org/dc/elements/1.1/"
   xmlns:cc="http://creativecommons.org/ns#"
   xmlns:rdf="http://www.w3.org/1999/02/22-rdf-syntax-ns#"
   xmlns:svg="http://www.w3.org/2000/svg"
   xmlns="http://www.w3.org/2000/svg"
   width="32"
   height="32"
   viewBox="0 0 32 32"
   version="1.1"
   id="svg8">
  <defs
     id="defs2">
    <pattern
       id="EMFhbasepattern"
       patternUnits="userSpaceOnUse"
       width="6"
       height="6"
       x="0"
       y="0" />
  </defs>
  <metadata
     id="metadata5">
    <rdf:RDF>
      <cc:Work
         rdf:about="">
        <dc:format>image/svg+xml</dc:format>
        <dc:type
           rdf:resource="http://purl.org/dc/dcmitype/StillImage" />
        <dc:title></dc:title>
      </cc:Work>
    </rdf:RDF>
  </metadata>
  <g
     id="layer1">
    <path
       style="fill:#131414;fill-opacity:1;fill-rule:nonzero;stroke:none;stroke-width:0.168011"
       d="m 11.078202,0.11130167 h 5.254647 V 14.175376 c 0,1.391921 -0.160009,2.708264 -0.473622,3.949025 -0.307214,1.240762 -0.800037,2.324069 -1.472069,3.249916 -0.672032,0.932147 -1.369665,1.580871 -2.105699,1.958768 -1.024048,0.522758 -2.252906,0.787286 -3.6801732,0.787286 -0.8320397,0 -1.7344817,-0.08188 -2.713728,-0.24563 C 4.9083124,23.71728 4.0890732,23.396068 3.4298416,22.917398 2.7770112,22.445027 2.1689825,21.764811 1.6313574,20.889349 1.0809315,20.007589 0.70971427,19.100636 0.50490431,18.168489 0.17848898,16.6632 0.01848153,15.334261 0.01848153,14.175376 V 0.11130167 H 5.273129 V 14.509185 c 0,1.284851 0.2624118,2.292577 0.7680358,3.010582 0.5184242,0.7306 1.2288578,1.089602 2.1441011,1.089602 0.8960423,0 1.6064754,-0.352704 2.1249001,-1.070707 0.512024,-0.705408 0.768036,-1.719433 0.768036,-3.029477 z"
       id="path947" />
    <path
       style="fill:#131414;fill-opacity:1;fill-rule:nonzero;stroke:none;stroke-width:0.168011"
       d="m 17.561707,-0.00836584 h 8.749213 c 1.907289,0 3.334557,0.62982862 4.288201,1.88318774 0.947246,1.2596579 1.420867,3.0546691 1.420867,5.3787374 0,2.3870506 -0.518425,4.2513437 -1.555273,5.5928777 -1.030449,1.347834 -2.611323,2.021751 -4.736223,2.021751 h -2.886536 v 8.735723 H 17.561707 Z M 22.841956,10.08149 h 1.292862 c 1.024048,0 1.740881,-0.2456299 2.156901,-0.7369004 0.409619,-0.4849679 0.614428,-1.1147964 0.614428,-1.8768891 0,-0.7431979 -0.179206,-1.3667276 -0.537623,-1.8831869 -0.358418,-0.5164604 -1.030451,-0.77469 -2.022497,-0.77469 h -1.504071 z"
       id="path949" />
    <path
       style="fill:#0054ee;fill-opacity:1;fill-rule:evenodd;stroke:none;stroke-width:0.168011px;stroke-linecap:butt;stroke-linejoin:miter;stroke-miterlimit:4;stroke-dasharray:none;stroke-opacity:1"
       d="M 0.01848153,31.344505 H 32.019988 V 26.677476 H 0.01848153 Z"
       id="path951" />
  </g>
</svg>
